<svg width="40" height="30" viewBox="0 0 40 30" fill="none" xmlns="http://www.w3.org/2000/svg">
<path d="M35 0H5C3.67392 0 2.40215 0.526784 1.46447 1.46447C0.526784 2.40215 0 3.67392 0 5L0 30H40V5C40 3.67392 39.4732 2.40215 38.5355 1.46447C37.5979 0.526784 36.3261 0 35 0ZM5 3.33333H35C35.442 3.33333 35.866 3.50893 36.1785 3.82149C36.4911 4.13405 36.6667 4.55797 36.6667 5V8.33333H3.33333V5C3.33333 4.55797 3.50893 4.13405 3.82149 3.82149C4.13405 3.50893 4.55797 3.33333 5 3.33333ZM3.33333 26.6667V11.6667H36.6667V26.6667H3.33333Z" fill="white"/>
</svg>
