<svg width="40" height="40" viewBox="0 0 40 40" fill="none" xmlns="http://www.w3.org/2000/svg">
<g clip-path="url(#clip0_2149_3103)">
<path d="M40 26.6667V40H26.6667C21.7417 40 17.4417 37.3083 15.1333 33.3267C16.415 33.3167 17.6633 33.175 18.87 32.9133C20.705 35.1983 23.515 36.6667 26.6667 36.6667H36.6667V26.6667C36.6667 23.515 35.1983 20.705 32.9133 18.87C33.1733 17.6633 33.3167 16.415 33.3267 15.1333C37.3083 17.4417 40 21.7417 40 26.6667ZM20.1033 29.0867C18.5083 29.6667 16.795 30 15 30H0V15C0 6.72833 6.72833 0 15 0C23.2717 0 30 6.72833 30 15C30 20.22 27.3167 24.82 23.2617 27.5067L25.815 29.9817L32.1683 23.8083L34.4983 26.1917L28.1767 32.37C27.535 33.0117 26.6867 33.3333 25.8383 33.3333C24.9833 33.3333 24.1283 33.0083 23.4767 32.3567L20.1033 29.0867ZM15 26.6667C21.4317 26.6667 26.6667 21.4317 26.6667 15C26.6667 8.56833 21.4317 3.33333 15 3.33333C8.56833 3.33333 3.33333 8.56833 3.33333 15V26.6667H15ZM15.8933 6.74667C14.4167 6.47833 12.9217 6.88167 11.7867 7.835C10.65 8.78833 10 10.185 10 11.6667H13.3333C13.3333 11.1717 13.5517 10.7067 13.93 10.3883C14.3117 10.065 14.8 9.93333 15.3167 10.0283C15.9683 10.1417 16.5233 10.6967 16.6383 11.3517C16.7933 12.235 16.2833 12.86 15.8017 13.1267C14.3933 13.9017 13.3333 15.785 13.3333 17.5067V18.3317H16.6667V17.5067C16.6667 16.9867 17.1 16.2183 17.4117 16.0467C19.2867 15.0117 20.2933 12.8917 19.9217 10.775C19.5683 8.755 17.91 7.09667 15.8933 6.745V6.74667ZM13.3333 23.3333H16.6667V20H13.3333V23.3333Z" fill="white"/>
</g>
<defs>
<clipPath id="clip0_2149_3103">
<rect width="40" height="40" fill="white"/>
</clipPath>
</defs>
</svg>
