<svg width="40" height="40" viewBox="0 0 40 40" fill="none" xmlns="http://www.w3.org/2000/svg">
<path d="M40 33.3323V9.99897C40 8.67289 39.4732 7.40112 38.5355 6.46344C37.5979 5.52575 36.3261 4.99897 35 4.99897H33.3333C33.3332 4.22517 33.1534 3.46198 32.8082 2.76945C32.463 2.07692 31.9618 1.47396 31.344 1.00803C30.7262 0.542103 30.0087 0.22592 29.248 0.0843699C28.4872 -0.0571797 27.704 -0.0202328 26.96 0.192303L21.96 1.6223C21.2324 1.83041 20.562 2.2021 20 2.70897C19.438 2.2021 18.7676 1.83041 18.04 1.6223L13.04 0.192303C12.296 -0.0202328 11.5128 -0.0571797 10.752 0.0843699C9.99128 0.22592 9.27378 0.542103 8.65599 1.00803C8.03819 1.47396 7.53697 2.07692 7.19178 2.76945C6.84658 3.46198 6.66683 4.22517 6.66667 4.99897H5C3.67392 4.99897 2.40215 5.52575 1.46447 6.46344C0.526784 7.40112 0 8.67289 0 9.99897L0 33.3323H18.3333V36.6656H11.6667V39.999H28.3333V36.6656H21.6667V33.3323H40ZM21.6667 6.42897C21.6668 6.067 21.7848 5.71491 22.0028 5.42595C22.2208 5.13698 22.527 4.92685 22.875 4.8273L27.875 3.39897C28.024 3.35584 28.1782 3.33341 28.3333 3.3323C28.7754 3.3323 29.1993 3.5079 29.5118 3.82046C29.8244 4.13302 30 4.55694 30 4.99897V15.409L21.6667 17.789V6.42897ZM10 4.99897C10.0004 4.74116 10.0605 4.48696 10.1758 4.25634C10.291 4.02573 10.4582 3.825 10.6642 3.66992C10.8701 3.51485 11.1092 3.40967 11.3627 3.36266C11.6162 3.31564 11.8771 3.32807 12.125 3.39897L17.125 4.8273C17.473 4.92685 17.7792 5.13698 17.9972 5.42595C18.2152 5.71491 18.3332 6.067 18.3333 6.42897V17.789L10 15.409V4.99897ZM3.33333 9.99897C3.33333 9.55694 3.50893 9.13302 3.82149 8.82046C4.13405 8.5079 4.55797 8.3323 5 8.3323H6.66667V17.9223L20 21.7323L33.3333 17.9223V8.3323H35C35.442 8.3323 35.866 8.5079 36.1785 8.82046C36.4911 9.13302 36.6667 9.55694 36.6667 9.99897V29.999H3.33333V9.99897Z" fill="#69CB2D"/>
</svg>
