<svg width="40" height="40" viewBox="0 0 40 40" fill="none" xmlns="http://www.w3.org/2000/svg">
<g clip-path="url(#clip0_2149_3098)">
<path d="M8.33325 31.6664H15.6899L38.4283 8.92811C39.4022 7.95173 39.9492 6.6289 39.9492 5.24978C39.9492 3.87065 39.4022 2.54782 38.4283 1.57144C37.4377 0.624598 36.1202 0.0961914 34.7499 0.0961914C33.3796 0.0961914 32.0621 0.624598 31.0716 1.57144L8.33325 24.3098V31.6664ZM11.6666 25.6898L33.4283 3.92811C33.7842 3.58803 34.2576 3.39826 34.7499 3.39826C35.2422 3.39826 35.7156 3.58803 36.0716 3.92811C36.4215 4.27897 36.618 4.75426 36.618 5.24978C36.618 5.74529 36.4215 6.22058 36.0716 6.57144L14.3099 28.3331H11.6666V25.6898Z" fill="white"/>
<path d="M39.3683 12.7033L36.6667 15.405V26.6667H26.6667V36.6667H3.33333V5C3.33333 4.55797 3.50893 4.13405 3.82149 3.82149C4.13405 3.50893 4.55797 3.33333 5 3.33333H24.5967L27.2983 0.631667C27.5417 0.40604 27.7982 0.19511 28.0667 0L5 0C3.67392 0 2.40215 0.526784 1.46447 1.46447C0.526784 2.40215 0 3.67392 0 5L0 40H30.69L40 30.69V11.935C39.8045 12.2031 39.5936 12.4596 39.3683 12.7033ZM30 35.9767V30H35.9767L30 35.9767Z" fill="white"/>
</g>
<defs>
<clipPath id="clip0_2149_3098">
<rect width="40" height="40" fill="white"/>
</clipPath>
</defs>
</svg>
