<svg width="41" height="42" viewBox="0 0 41 42" fill="none" xmlns="http://www.w3.org/2000/svg">
<path d="M13.1998 17.4H13.2C14.8218 17.4 16.4072 16.9191 17.7557 16.0181C19.1042 15.117 20.1552 13.8364 20.7758 12.338C21.3964 10.8397 21.5588 9.19091 21.2424 7.60026C20.926 6.00962 20.1451 4.54852 18.9983 3.40173C17.8515 2.25494 16.3904 1.47396 14.7997 1.15756C13.2091 0.841166 11.5603 1.00355 10.062 1.62419C8.56364 2.24483 7.28298 3.29584 6.38195 4.64433C5.48092 5.99281 5 7.5782 5 9.2V9.2002C5.00217 11.3743 5.86677 13.4586 7.40406 14.9959C8.94135 16.5332 11.0257 17.3978 13.1998 17.4ZM13.2 4.06667C14.2153 4.06667 15.2078 4.36773 16.0519 4.93179C16.8961 5.49585 17.5541 6.29757 17.9426 7.23556C18.3311 8.17355 18.4328 9.2057 18.2347 10.2015C18.0366 11.1972 17.5477 12.1119 16.8298 12.8298C16.1119 13.5477 15.1972 14.0366 14.2015 14.2347C13.2057 14.4328 12.1736 14.3311 11.2356 13.9426C10.2976 13.5541 9.49585 12.8961 8.93179 12.0519C8.36773 11.2078 8.06667 10.2153 8.06667 9.2C8.06667 7.83856 8.6075 6.53287 9.57018 5.57019C10.5329 4.6075 11.8386 4.06667 13.2 4.06667Z" fill="white"/>
<path fill-rule="evenodd" clip-rule="evenodd" d="M9.98551 1.43922C11.5204 0.803444 13.2094 0.637097 14.8388 0.961212C16.4683 1.28532 17.965 2.08535 19.1398 3.26011C20.3145 4.43488 21.1145 5.93162 21.4386 7.56105C21.7627 9.19049 21.5964 10.8795 20.9606 12.4143C20.3249 13.9493 19.2483 15.2611 17.8669 16.1842C16.4855 17.1072 14.8614 17.5998 13.2 17.5998C10.973 17.5976 8.83743 16.7119 7.26269 15.1371C5.68794 13.5624 4.80227 11.4273 4.80005 9.2002C4.80005 7.53885 5.2927 5.91439 6.2157 4.53302C7.13871 3.15164 8.45061 2.075 9.98551 1.43922ZM14.7607 1.35353C13.2089 1.04484 11.6003 1.20327 10.1386 1.80877C8.67677 2.41427 7.42735 3.43965 6.54829 4.75525C5.66924 6.07084 5.20005 7.61756 5.20005 9.1998C5.20217 11.3209 6.0457 13.3544 7.54553 14.8543C9.04536 16.3541 11.0789 17.1977 13.2001 17.1998C14.7823 17.1998 16.329 16.7306 17.6446 15.8516C18.9603 14.9725 19.9856 13.7231 20.5911 12.2613C21.1965 10.7995 21.355 9.19094 21.0463 7.63908C20.7376 6.08723 19.9758 4.66177 18.8569 3.54296C17.7381 2.42414 16.3126 1.6622 14.7607 1.35353ZM13.2 4.26647C11.8917 4.26647 10.6369 4.78623 9.71165 5.71142C8.78648 6.63659 8.26672 7.89141 8.26672 9.1998C8.26672 10.1756 8.55605 11.1294 9.09813 11.9406C9.64021 12.7519 10.4107 13.3843 11.3122 13.7576C12.2136 14.131 13.2055 14.2287 14.1625 14.0383C15.1194 13.848 15.9985 13.3781 16.6884 12.6882C17.3784 11.9983 17.8482 11.1192 18.0386 10.1623C18.229 9.20529 18.1312 8.21335 17.7579 7.3119C17.3845 6.41046 16.7521 5.63998 15.9408 5.09789C15.1296 4.55581 14.1758 4.26647 13.2 4.26647ZM9.42881 5.42857C10.429 4.42838 11.7856 3.86647 13.2 3.86647C14.2549 3.86647 15.2861 4.17926 16.1631 4.76531C17.0402 5.35134 17.7238 6.18429 18.1274 7.15883C18.5311 8.13336 18.6367 9.20572 18.4309 10.2403C18.2251 11.2748 17.7171 12.2252 16.9713 12.971C16.2254 13.7169 15.2751 14.2248 14.2406 14.4307C13.206 14.6365 12.1337 14.5308 11.1591 14.1272C10.1846 13.7235 9.35158 13.0399 8.76555 12.1628C8.17951 11.2858 7.86672 10.2547 7.86672 9.1998C7.86672 7.78532 8.42862 6.42876 9.42881 5.42857Z" fill="white"/>
<path d="M13.2002 19.6665C9.96579 19.6704 6.86463 20.957 4.57758 23.244C2.29054 25.5311 1.00395 28.6318 1 31.8662C1 32.2728 1.16155 32.6631 1.4491 32.9507C1.73666 33.2382 2.12667 33.3998 2.53333 33.3998C2.94 33.3998 3.33001 33.2382 3.61756 32.9507C3.90512 32.6631 4.06667 32.2731 4.06667 31.8665C4.06667 29.4441 5.02893 27.121 6.74176 25.4082C8.45459 23.6954 10.7777 22.7331 13.2 22.7331C14.3157 22.7331 15.4103 22.9372 16.4339 23.3248L16.5898 23.3838L16.6759 23.2412L18.07 20.933L18.189 20.736L17.9772 20.6456C16.4811 20.0075 14.8582 19.6685 13.2002 19.6665Z" fill="white"/>
<path fill-rule="evenodd" clip-rule="evenodd" d="M13.2005 19.4663C14.8856 19.4683 16.5351 19.8129 18.0557 20.4614L18.4792 20.6422L16.8472 23.3444L16.6749 23.6296L16.3632 23.5117C15.362 23.1326 14.2913 22.9329 13.2 22.9329C10.8308 22.9329 8.55855 23.8741 6.88323 25.5494C5.20791 27.2247 4.26672 29.497 4.26672 31.8663C4.26672 32.326 4.08409 32.7668 3.75904 33.0919C3.434 33.4169 2.99311 33.5996 2.53338 33.5996C2.07366 33.5996 1.63279 33.4169 1.30774 33.0919C0.98267 32.7668 0.800049 32.3256 0.800049 31.866C0.804059 28.5787 2.11172 25.4269 4.43621 23.1024C6.76071 20.7779 9.91313 19.4703 13.2005 19.4663ZM4.71905 23.3852C2.46948 25.6349 1.20396 28.6847 1.20005 31.8661C1.20008 32.2197 1.34057 32.559 1.59056 32.8091C1.84063 33.0591 2.17978 33.1996 2.53338 33.1996C2.88698 33.1996 3.22612 33.0591 3.47618 32.8091C3.47619 32.8091 3.47617 32.8091 3.47618 32.8091M3.47618 32.8091C3.72623 32.559 3.86672 32.2198 3.86672 31.8663C3.86672 29.3909 4.85005 27.0169 6.60039 25.2666C8.35072 23.5163 10.7247 22.5329 13.2 22.5329C14.3402 22.5329 15.4587 22.7415 16.5047 23.1376C16.5048 23.1376 16.5047 23.1376 16.5047 23.1376L17.8989 20.8294C17.8988 20.8294 17.8989 20.8294 17.8989 20.8294C16.4273 20.2018 14.831 19.8683 13.2002 19.8663C10.0189 19.8702 6.96859 21.1357 4.71905 23.3852" fill="white"/>
<path fill-rule="evenodd" clip-rule="evenodd" d="M18.3999 22.7999C18.3999 22.0267 19.0267 21.3999 19.7999 21.3999H37.5999C38.3731 21.3999 38.9999 22.0267 38.9999 22.7999V35.5999C38.9999 36.3731 38.3731 36.9999 37.5999 36.9999H19.7999C19.0267 36.9999 18.3999 36.3731 18.3999 35.5999V22.7999ZM21.1999 24.1999V34.1999H36.1999V24.1999H21.1999Z" fill="white"/>
<path fill-rule="evenodd" clip-rule="evenodd" d="M17.2007 39.7999C17.2007 39.0267 17.8275 38.3999 18.6007 38.3999H38.8007C39.5739 38.3999 40.2007 39.0267 40.2007 39.7999C40.2007 40.5731 39.5739 41.1999 38.8007 41.1999H18.6007C17.8275 41.1999 17.2007 40.5731 17.2007 39.7999Z" fill="white"/>
</svg>
