<svg width="38" height="43" viewBox="0 0 38 43" fill="none" xmlns="http://www.w3.org/2000/svg">
<path d="M10.054 3.22478L10.0538 3.22484C6.97401 4.0217 4.83307 4.58402 3.45133 4.96147C2.76108 5.15002 2.25661 5.29344 1.91811 5.39742C1.74973 5.44914 1.61655 5.49289 1.5201 5.52884C1.47271 5.54651 1.42639 5.56515 1.38639 5.58452C1.36667 5.59407 1.3412 5.60727 1.31504 5.6242C1.29771 5.63542 1.24217 5.67163 1.19502 5.73612C1.13874 5.81306 1.11909 5.89559 1.11279 5.92203L1.11256 5.92302C1.10256 5.96496 1.09547 6.01039 1.08991 6.05486C1.07864 6.14494 1.06956 6.26567 1.06175 6.419C1.04603 6.72763 1.03406 7.19912 1.02498 7.88833C1.0068 9.26849 1 11.542 1 15.1775V24.2261V24.2682L1.0088 24.3095L1.24432 25.414C1.24438 25.4142 1.24444 25.4145 1.2445 25.4148C2.27837 30.3584 5.55153 34.6815 10.707 38.0341C12.1846 38.9945 13.3261 39.6218 15.0473 40.4216L15.0476 40.4217C16.1021 40.9105 16.8898 41.2514 17.4863 41.4706C18.0732 41.6863 18.5152 41.8 18.8625 41.8C19.2225 41.8 19.7668 41.6474 20.3712 41.4298C20.9953 41.2051 21.742 40.8887 22.5337 40.518C24.1164 39.7769 25.9033 38.8075 27.284 37.8929L27.2844 37.8926C32.2037 34.6264 35.2503 30.6394 36.4949 25.7797V25.7796L36.7489 24.7868L36.7612 24.7386L36.7614 24.6888L36.7886 15.4141C36.8022 11.5654 36.8045 9.2351 36.7908 7.85047C36.784 7.15924 36.7732 6.69762 36.7574 6.39864C36.7496 6.25023 36.7401 6.13299 36.7277 6.04429C36.7216 6.00029 36.7135 5.9545 36.7019 5.9113C36.6933 5.87921 36.6719 5.80472 36.6188 5.73343C36.5765 5.67664 36.5287 5.64263 36.5082 5.62867C36.4824 5.61107 36.4572 5.59729 36.4372 5.58713C36.3971 5.56673 36.3515 5.54767 36.3056 5.53C36.2124 5.4941 36.0849 5.45141 35.9237 5.40134C35.5996 5.30063 35.1129 5.16195 34.4335 4.97667C33.0731 4.60572 30.923 4.04335 27.7164 3.21606C25.362 2.60633 23.1999 2.05312 21.6137 1.65335C20.8207 1.45349 20.1708 1.29178 19.7124 1.18047C19.4835 1.12488 19.3008 1.08149 19.1715 1.05212C19.1072 1.03753 19.0535 1.02582 19.013 1.01771C18.9931 1.01373 18.9728 1.00991 18.9545 1.00702C18.9455 1.0056 18.9333 1.00381 18.9198 1.00243L18.919 1.00235C18.9116 1.00158 18.8802 0.998292 18.8418 1.00114C18.8107 1.00336 18.7853 1.00817 18.7803 1.00911L18.7796 1.00925C18.7627 1.01228 18.7436 1.01616 18.724 1.02035C18.6841 1.02884 18.631 1.04093 18.5667 1.05601C18.4376 1.08632 18.2554 1.13063 18.027 1.18714C17.5697 1.30027 16.9221 1.46354 16.1321 1.66444C14.5518 2.06632 12.3991 2.61947 10.054 3.22478ZM34.4061 25.6276L34.4054 25.6301C33.8213 27.8305 32.9035 29.6367 31.4567 31.4772L31.4564 31.4777C30.7356 32.3975 29.0631 34.0389 27.9582 34.9115L27.9577 34.9119C25.6531 36.7385 22.4887 38.4864 19.5226 39.579L19.5205 39.5797L18.9169 39.8059L17.9867 39.4578L17.9854 39.4573C15.642 38.59 12.7897 37.0743 10.7789 35.6157L10.778 35.6151C6.82812 32.7668 4.46986 29.5642 3.40063 25.6448L3.39973 25.6416L3.11519 24.6318L3.06189 7.11377C3.52263 6.99471 6.99914 6.09344 11.0707 5.03566C13.2159 4.48271 15.1773 3.97766 16.6081 3.60976C17.3236 3.4258 17.9063 3.27614 18.3129 3.17195C18.5472 3.11193 18.7157 3.06894 18.8183 3.04276C18.8372 3.03795 18.8538 3.0337 18.8682 3.03002C18.8915 3.03556 18.9195 3.04229 18.9523 3.05024C19.065 3.07763 19.229 3.11822 19.4391 3.17075C19.859 3.27576 20.4606 3.42775 21.1998 3.6155C22.678 3.99095 24.7051 4.50904 26.9274 5.07942C26.9274 5.07943 26.9274 5.07943 26.9274 5.07943L34.7004 7.075V24.547L34.4061 25.6276Z" fill="white" stroke="white"/>
<path d="M15.537 10.5181L15.5386 10.5183C15.8495 10.5468 16.2377 10.7456 16.6013 11.1106C16.9588 11.4693 17.2472 11.9448 17.3799 12.4389L17.3799 12.4389L17.3806 12.4417C17.4996 12.8746 17.5377 13.1998 17.5153 13.4815C17.4933 13.758 17.4106 14.0226 17.2453 14.331C16.8996 14.9724 16.4465 15.3247 16.0062 15.4443C15.5748 15.5615 15.0829 15.4762 14.5959 15.0979C14.0321 14.6559 13.7058 14.1283 13.5552 13.398L13.5551 13.3974C13.3737 12.5228 13.5539 11.7593 13.926 11.2456C14.2924 10.7398 14.8568 10.4534 15.537 10.5181ZM17.8628 12.3092C17.5481 11.1378 16.5176 10.1061 15.5843 10.0204L17.6858 14.5677C18.0677 13.8551 18.1192 13.2424 17.8628 12.3092Z" fill="white" stroke="white"/>
<path d="M9.43049 14.9138L9.43049 14.9138L9.432 14.9133C9.77645 14.7973 10.269 14.8259 10.8006 15.0286C11.3247 15.2284 11.8285 15.5764 12.1815 16.0132L12.1815 16.0132L12.1834 16.0154C12.4934 16.3944 12.6757 16.7039 12.7773 16.9986C12.8771 17.2884 12.9089 17.5932 12.8756 17.9777C12.8044 18.7769 12.4958 19.3438 12.0871 19.6714C11.6849 19.9937 11.1307 20.1294 10.4607 19.9673C9.68727 19.7764 9.12057 19.3914 8.64653 18.7269L8.64615 18.7264C8.07808 17.9322 7.92437 17.0835 8.08002 16.3944C8.23374 15.7138 8.6923 15.16 9.43049 14.9138Z" fill="white" stroke="white"/>
<path d="M26.5398 15.2962L26.5401 15.296C26.8108 15.1312 27.16 15.0035 27.5117 14.9369C27.8689 14.8693 28.182 14.8735 28.3885 14.9291L28.3885 14.9292L28.3961 14.9311C28.6105 14.9853 28.8835 15.1289 29.1395 15.3322C29.3957 15.5357 29.5848 15.7592 29.6713 15.9351C30.0506 16.7419 29.9164 17.8561 29.2308 18.7931C28.4548 19.8469 27.4028 20.2518 26.4297 19.9981C25.7033 19.8063 25.1789 19.181 25.0529 18.0497C25.0101 17.5922 25.0429 17.3137 25.1418 17.0281C25.2506 16.7384 25.466 16.3828 25.7351 16.05C26.0069 15.714 26.301 15.4414 26.5398 15.2962Z" fill="white" stroke="white"/>
<path d="M21.0252 11.4803L21.0255 11.4799C21.1923 11.2462 21.4375 11.015 21.7062 10.8343C21.9799 10.6503 22.238 10.5453 22.4211 10.52L22.4211 10.52L22.4289 10.5188C22.619 10.4894 22.8914 10.5123 23.1733 10.5923C23.4553 10.6723 23.6854 10.7921 23.8132 10.9049C24.4019 11.4441 24.6806 12.4282 24.4348 13.4661C24.1542 14.6361 23.42 15.3419 22.5373 15.4715C21.8875 15.5649 21.243 15.2389 20.7441 14.3281C20.5494 13.9572 20.4808 13.7126 20.464 13.4392C20.4539 13.1574 20.5094 12.7803 20.6182 12.402C20.7282 12.0197 20.8785 11.6855 21.0252 11.4803Z" fill="white" stroke="white"/>
<path d="M26.2804 30.7207C25.7945 31.1389 25.3187 31.4424 24.778 31.6475C24.2383 31.8522 23.6547 31.9512 22.964 31.9848L22.962 31.9849C22.4693 32.0064 22.1443 32.0113 21.7831 31.9564C21.4308 31.9029 21.0557 31.7941 20.4588 31.6136L20.458 31.6133C19.6986 31.3819 19.2769 31.2854 18.8973 31.2876C18.5252 31.2898 18.16 31.3875 17.5143 31.6271C17.145 31.7644 16.8729 31.8516 16.5348 31.8994C16.2074 31.9456 15.8302 31.9531 15.254 31.9531C14.6685 31.9531 14.296 31.9459 13.9901 31.8986C13.6674 31.8487 13.4304 31.7563 13.115 31.6188L13.1121 31.6175C10.2367 30.3363 9.20103 27.3587 10.6521 24.6683C11.1794 23.689 11.874 22.9578 12.9043 22.2933C13.2159 22.089 13.3871 21.9573 13.532 21.7974C13.6802 21.6338 13.8148 21.4254 14.0265 21.0466L14.0271 21.0457C14.3025 20.5566 14.6955 19.9621 14.91 19.7189C15.1799 19.4129 15.584 19.1027 16.018 18.8411C16.4535 18.5787 16.9439 18.3502 17.3999 18.2201C19.3119 17.6654 21.4983 18.1831 22.8656 19.5047L22.8674 19.5065C23.1946 19.827 23.6532 20.4595 23.9036 20.9366L23.9042 20.9377C24.1877 21.4829 24.438 21.778 24.6969 21.9542V21.9542L24.7037 21.959C26.9127 23.5336 28 25.1612 28 27.1553C28 28.5786 27.4432 29.7232 26.2804 30.7207ZM26.2804 30.7207C26.2804 30.7208 26.2803 30.7209 26.2802 30.7209L26.0199 30.461L26.2807 30.7205C26.2806 30.7206 26.2805 30.7207 26.2804 30.7207ZM24.1228 24.458L24.1227 24.4579C23.3805 23.9023 22.9206 23.5402 22.5966 23.2132C22.26 22.8735 22.075 22.5766 21.8649 22.1673C21.4113 21.2932 20.8696 20.7273 20.3016 20.4647C20.033 20.3432 19.6407 20.253 19.0839 20.2328L19.0813 20.2327C18.7039 20.2167 18.4925 20.2188 18.3212 20.2436C18.1594 20.267 18.0163 20.3132 17.7821 20.4144C17.1205 20.7007 16.605 21.214 16.0947 22.1597C15.7797 22.7651 15.4433 23.1788 14.989 23.5556L14.9891 23.5556L14.9825 23.5609C14.0891 24.2686 13.6275 24.6417 13.3408 24.9196C13.0727 25.1794 12.9653 25.3478 12.7913 25.6635C12.5344 26.1297 12.4507 26.4363 12.4064 27.0066C12.3824 27.3871 12.3815 27.556 12.4143 27.7061C12.4471 27.8554 12.5174 28.0054 12.6977 28.338L12.6981 28.3386C13.0695 29.027 13.6336 29.4705 14.3118 29.6713C14.9952 29.8736 15.8293 29.8394 16.7475 29.5083L16.7477 29.5082C17.5548 29.2176 18.2848 29.0675 19.0358 29.0762C19.7854 29.085 20.5308 29.2518 21.3698 29.5627C23.0558 30.176 24.7901 29.5141 25.3664 28.1235C25.6269 27.4898 25.6327 26.9607 25.3823 26.2095C25.1193 25.4447 24.7339 24.9152 24.1228 24.458Z" fill="white" stroke="white"/>
</svg>
